<?xml version="1.0" encoding="UTF-8" standalone="no"?>
<!DOCTYPE svg PUBLIC "-//W3C//DTD SVG 1.1//EN"
 "http://www.w3.org/Graphics/SVG/1.1/DTD/svg11.dtd">
<!-- Generated by graphviz version 2.40.1 (20161225.0304)
 -->
<!-- Title: g Pages: 1 -->
<svg width="249pt" height="2079pt"
 viewBox="1.44 1.44 247.40 2077.62" xmlns="http://www.w3.org/2000/svg" xmlns:xlink="http://www.w3.org/1999/xlink">
<g id="graph0" class="graph" transform="scale(1 1) rotate(0) translate(5.44 2073.6158)">
<title>g</title>
<polygon fill="#ffffff" stroke="transparent" points="-4,4 -4,-2072.1758 241.9569,-2072.1758 241.9569,4 -4,4"/>
<!-- n0 -->
<g id="node1" class="node">
<title>n0</title>
<ellipse fill="none" stroke="#000000" cx="169.8528" cy="-2053.3265" rx="15.6129" ry="14.7"/>
<text text-anchor="middle" x="169.8528" y="-2049.6265" font-family="Helvetica,sans-Serif" font-size="14.00" fill="#000000">n0</text>
</g>
<!-- e0 -->
<g id="node18" class="node">
<title>e0</title>
<text text-anchor="middle" x="169.8528" y="-1973.2773" font-family="Helvetica,sans-Serif" font-size="14.00" fill="#000000">16</text>
</g>
<!-- n0&#45;&gt;e0 -->
<g id="edge1" class="edge">
<title>n0&#45;&gt;e0</title>
<path fill="none" stroke="#000000" d="M169.8528,-2038.2424C169.8528,-2026.6798 169.8528,-2010.5903 169.8528,-1997.8011"/>
<polygon fill="#000000" stroke="#000000" points="173.3529,-1997.6083 169.8528,-1987.6084 166.3529,-1997.6084 173.3529,-1997.6083"/>
<text text-anchor="middle" x="173.8528" y="-2009.2773" font-family="Helvetica,sans-Serif" font-size="14.00" fill="#000000">0</text>
</g>
<!-- n1 -->
<g id="node2" class="node">
<title>n1</title>
<ellipse fill="none" stroke="#000000" cx="169.8528" cy="-1900.628" rx="10.7143" ry="14.7"/>
<text text-anchor="middle" x="169.8528" y="-1896.928" font-family="Helvetica,sans-Serif" font-size="14.00" fill="#000000">=</text>
</g>
<!-- e1 -->
<g id="node19" class="node">
<title>e1</title>
<polygon fill="none" stroke="#000000" points="198.8528,-1834.7788 143.1861,-1834.7788 140.8528,-1832.4455 140.8528,-1813.7788 196.5195,-1813.7788 198.8528,-1816.1121 198.8528,-1834.7788"/>
<polyline fill="none" stroke="#000000" points="196.5195,-1832.4455 140.8528,-1832.4455 "/>
<polyline fill="none" stroke="#000000" points="196.5195,-1832.4455 196.5195,-1813.7788 "/>
<polyline fill="none" stroke="#000000" points="196.5195,-1832.4455 198.8528,-1834.7788 "/>
<text text-anchor="middle" x="169.8528" y="-1820.5788" font-family="Helvetica,sans-Serif" font-size="14.00" fill="#000000">16,C:1.5</text>
</g>
<!-- n1&#45;&gt;e1 -->
<g id="edge3" class="edge">
<title>n1&#45;&gt;e1</title>
<path fill="none" stroke="#000000" d="M169.8528,-1885.5439C169.8528,-1873.9813 169.8528,-1857.8918 169.8528,-1845.1026"/>
<polygon fill="#000000" stroke="#000000" points="173.3529,-1844.9098 169.8528,-1834.9099 166.3529,-1844.9099 173.3529,-1844.9098"/>
<text text-anchor="middle" x="173.8528" y="-1856.5788" font-family="Helvetica,sans-Serif" font-size="14.00" fill="#000000">0</text>
</g>
<!-- n2 -->
<g id="node3" class="node">
<title>n2</title>
<ellipse fill="none" stroke="#000000" cx="147.8528" cy="-1747.9295" rx="16.0303" ry="14.7"/>
<text text-anchor="middle" x="147.8528" y="-1744.2295" font-family="Helvetica,sans-Serif" font-size="14.00" fill="#000000">lzc</text>
</g>
<!-- e2 -->
<g id="node20" class="node">
<title>e2</title>
<text text-anchor="middle" x="154.8528" y="-1667.8803" font-family="Helvetica,sans-Serif" font-size="14.00" fill="#000000">5</text>
</g>
<!-- n2&#45;&gt;e2 -->
<g id="edge6" class="edge">
<title>n2&#45;&gt;e2</title>
<path fill="none" stroke="#000000" d="M149.2358,-1732.8454C150.2959,-1721.2828 151.771,-1705.1933 152.9436,-1692.4041"/>
<polygon fill="#000000" stroke="#000000" points="156.4504,-1692.4892 153.8781,-1682.2114 149.4796,-1691.85 156.4504,-1692.4892"/>
<text text-anchor="middle" x="156.8528" y="-1703.8803" font-family="Helvetica,sans-Serif" font-size="14.00" fill="#000000">0</text>
</g>
<!-- n3 -->
<g id="node4" class="node">
<title>n3</title>
<ellipse fill="none" stroke="#000000" cx="172.8528" cy="-1595.2311" rx="46.8387" ry="14.7"/>
<text text-anchor="middle" x="172.8528" y="-1591.5311" font-family="Helvetica,sans-Serif" font-size="14.00" fill="#000000">normalize</text>
</g>
<!-- e3 -->
<g id="node21" class="node">
<title>e3</title>
<polygon fill="none" stroke="#000000" points="160.8528,-1529.3818 105.1861,-1529.3818 102.8528,-1527.0485 102.8528,-1508.3818 158.5195,-1508.3818 160.8528,-1510.7152 160.8528,-1529.3818"/>
<polyline fill="none" stroke="#000000" points="158.5195,-1527.0485 102.8528,-1527.0485 "/>
<polyline fill="none" stroke="#000000" points="158.5195,-1527.0485 158.5195,-1508.3818 "/>
<polyline fill="none" stroke="#000000" points="158.5195,-1527.0485 160.8528,-1529.3818 "/>
<text text-anchor="middle" x="131.8528" y="-1515.1818" font-family="Helvetica,sans-Serif" font-size="14.00" fill="#000000">16,C:1.5</text>
</g>
<!-- n3&#45;&gt;e3 -->
<g id="edge8" class="edge">
<title>n3&#45;&gt;e3</title>
<path fill="none" stroke="#000000" d="M164.9476,-1580.5102C158.5688,-1568.6317 149.5337,-1551.8067 142.5151,-1538.7369"/>
<polygon fill="#000000" stroke="#000000" points="145.4331,-1536.7727 137.6185,-1529.6185 139.2661,-1540.0845 145.4331,-1536.7727"/>
<text text-anchor="middle" x="158.8528" y="-1551.1818" font-family="Helvetica,sans-Serif" font-size="14.00" fill="#000000">0</text>
<text text-anchor="middle" x="151.4476" y="-1569.3102" font-family="Helvetica,sans-Serif" font-size="14.00" fill="#000000">data</text>
</g>
<!-- e4 -->
<g id="node22" class="node">
<title>e4</title>
<polygon fill="none" stroke="#000000" points="195.8528,-1490.3818 181.8528,-1490.3818 181.8528,-1469.3818 195.8528,-1469.3818 195.8528,-1490.3818"/>
<text text-anchor="middle" x="188.8528" y="-1476.1818" font-family="Helvetica,sans-Serif" font-size="14.00" fill="#000000">5</text>
</g>
<!-- n3&#45;&gt;e4 -->
<g id="edge11" class="edge">
<title>n3&#45;&gt;e4</title>
<path fill="none" stroke="#000000" d="M174.9445,-1580.1512C177.769,-1559.7888 182.8134,-1523.422 185.9884,-1500.5324"/>
<polygon fill="#000000" stroke="#000000" points="189.4717,-1500.8936 187.3789,-1490.5075 182.5381,-1499.9318 189.4717,-1500.8936"/>
<text text-anchor="middle" x="183.8528" y="-1551.1818" font-family="Helvetica,sans-Serif" font-size="14.00" fill="#000000">1</text>
<text text-anchor="middle" x="187.4445" y="-1568.9512" font-family="Helvetica,sans-Serif" font-size="14.00" fill="#000000">shift</text>
</g>
<!-- n4 -->
<g id="node5" class="node">
<title>n4</title>
<ellipse fill="none" stroke="#000000" cx="194.8528" cy="-1388.8341" rx="10.7143" ry="14.7"/>
<text text-anchor="middle" x="194.8528" y="-1385.1341" font-family="Helvetica,sans-Serif" font-size="14.00" fill="#000000">=</text>
</g>
<!-- e5 -->
<g id="node23" class="node">
<title>e5</title>
<polygon fill="none" stroke="#000000" points="202.8528,-1316.9848 188.8528,-1316.9848 188.8528,-1295.9848 202.8528,-1295.9848 202.8528,-1316.9848"/>
<text text-anchor="middle" x="195.8528" y="-1302.7848" font-family="Helvetica,sans-Serif" font-size="14.00" fill="#000000">5</text>
</g>
<!-- n4&#45;&gt;e5 -->
<g id="edge13" class="edge">
<title>n4&#45;&gt;e5</title>
<path fill="none" stroke="#000000" d="M195.0362,-1373.73C195.1944,-1360.7056 195.4243,-1341.769 195.6,-1327.3074"/>
<polygon fill="#000000" stroke="#000000" points="199.0998,-1327.3347 195.7216,-1317.2929 192.1003,-1327.2496 199.0998,-1327.3347"/>
<text text-anchor="middle" x="199.8528" y="-1341.7848" font-family="Helvetica,sans-Serif" font-size="14.00" fill="#000000">0</text>
</g>
<!-- n5 -->
<g id="node6" class="node">
<title>n5</title>
<ellipse fill="none" stroke="#000000" cx="196.8528" cy="-1215.4371" rx="10.7143" ry="14.7"/>
<text text-anchor="middle" x="196.8528" y="-1211.7371" font-family="Helvetica,sans-Serif" font-size="14.00" fill="#000000">=</text>
</g>
<!-- e6 -->
<g id="node24" class="node">
<title>e6</title>
<polygon fill="none" stroke="#000000" points="204.8528,-1056.8894 190.8528,-1056.8894 190.8528,-1035.8894 204.8528,-1035.8894 204.8528,-1056.8894"/>
<text text-anchor="middle" x="197.8528" y="-1042.6894" font-family="Helvetica,sans-Serif" font-size="14.00" fill="#000000">5</text>
</g>
<!-- n5&#45;&gt;e6 -->
<g id="edge15" class="edge">
<title>n5&#45;&gt;e6</title>
<path fill="none" stroke="#000000" d="M196.9416,-1200.4353C197.1202,-1170.2343 197.5236,-1102.0389 197.7285,-1067.4127"/>
<polygon fill="#000000" stroke="#000000" points="201.2304,-1067.0808 197.7897,-1057.0602 194.2305,-1067.0393 201.2304,-1067.0808"/>
<text text-anchor="middle" x="201.8528" y="-1129.3879" font-family="Helvetica,sans-Serif" font-size="14.00" fill="#000000">0</text>
</g>
<!-- n6 -->
<g id="node7" class="node">
<title>n6</title>
<ellipse fill="none" stroke="#000000" cx="73.8528" cy="-1436.5326" rx="30.3115" ry="14.7"/>
<text text-anchor="middle" x="73.8528" y="-1432.8326" font-family="Helvetica,sans-Serif" font-size="14.00" fill="#000000">lhsOp</text>
</g>
<!-- e7 -->
<g id="node25" class="node">
<title>e7</title>
<text text-anchor="middle" x="73.8528" y="-1341.7848" font-family="Helvetica,sans-Serif" font-size="14.00" fill="#000000">16</text>
</g>
<!-- n6&#45;&gt;e7 -->
<g id="edge17" class="edge">
<title>n6&#45;&gt;e7</title>
<path fill="none" stroke="#000000" d="M73.8528,-1421.4979C73.8528,-1406.4781 73.8528,-1383.2633 73.8528,-1366.4398"/>
<polygon fill="#000000" stroke="#000000" points="77.3529,-1365.993 73.8528,-1355.9931 70.3529,-1365.9931 77.3529,-1365.993"/>
<text text-anchor="middle" x="77.8528" y="-1385.1341" font-family="Helvetica,sans-Serif" font-size="14.00" fill="#000000">0</text>
</g>
<!-- n7 -->
<g id="node8" class="node">
<title>n7</title>
<ellipse fill="none" stroke="#000000" cx="65.8528" cy="-1263.1356" rx="10.7143" ry="14.7"/>
<text text-anchor="middle" x="65.8528" y="-1259.4356" font-family="Helvetica,sans-Serif" font-size="14.00" fill="#000000">=</text>
</g>
<!-- e8 -->
<g id="node26" class="node">
<title>e8</title>
<polygon fill="none" stroke="#000000" points="71.8528,-1143.5879 49.8528,-1143.5879 49.8528,-1122.5879 71.8528,-1122.5879 71.8528,-1143.5879"/>
<text text-anchor="middle" x="60.8528" y="-1129.3879" font-family="Helvetica,sans-Serif" font-size="14.00" fill="#000000">16</text>
</g>
<!-- n7&#45;&gt;e8 -->
<g id="edge20" class="edge">
<title>n7&#45;&gt;e8</title>
<path fill="none" stroke="#000000" d="M65.2793,-1248.2175C64.3859,-1224.9831 62.66,-1180.0922 61.6474,-1153.7544"/>
<polygon fill="#000000" stroke="#000000" points="65.1433,-1153.578 61.2616,-1143.7199 58.1485,-1153.847 65.1433,-1153.578"/>
<text text-anchor="middle" x="68.8528" y="-1211.7371" font-family="Helvetica,sans-Serif" font-size="14.00" fill="#000000">0</text>
</g>
<!-- n8 -->
<g id="node9" class="node">
<title>n8</title>
<ellipse fill="none" stroke="#000000" cx="128.8528" cy="-1263.1356" rx="8.4706" ry="14.7"/>
<text text-anchor="middle" x="128.8528" y="-1259.4356" font-family="Helvetica,sans-Serif" font-size="14.00" fill="#000000">*</text>
</g>
<!-- e9 -->
<g id="node27" class="node">
<title>e9</title>
<polygon fill="none" stroke="#000000" points="139.8528,-1182.5879 117.8528,-1182.5879 117.8528,-1161.5879 139.8528,-1161.5879 139.8528,-1182.5879"/>
<text text-anchor="middle" x="128.8528" y="-1168.3879" font-family="Helvetica,sans-Serif" font-size="14.00" fill="#000000">32</text>
</g>
<!-- n8&#45;&gt;e9 -->
<g id="edge22" class="edge">
<title>n8&#45;&gt;e9</title>
<path fill="none" stroke="#000000" d="M128.8528,-1248.1009C128.8528,-1233.0811 128.8528,-1209.8663 128.8528,-1193.0428"/>
<polygon fill="#000000" stroke="#000000" points="132.3529,-1192.5961 128.8528,-1182.5961 125.3529,-1192.5961 132.3529,-1192.5961"/>
<text text-anchor="middle" x="132.8528" y="-1211.7371" font-family="Helvetica,sans-Serif" font-size="14.00" fill="#000000">0</text>
</g>
<!-- n9 -->
<g id="node10" class="node">
<title>n9</title>
<ellipse fill="none" stroke="#000000" cx="128.8528" cy="-1089.7386" rx="41.0244" ry="14.7"/>
<text text-anchor="middle" x="128.8528" y="-1086.0386" font-family="Helvetica,sans-Serif" font-size="14.00" fill="#000000">bitSelect</text>
</g>
<!-- e10 -->
<g id="node28" class="node">
<title>e10</title>
<text text-anchor="middle" x="127.8528" y="-1003.6894" font-family="Helvetica,sans-Serif" font-size="14.00" fill="#000000">16</text>
</g>
<!-- n9&#45;&gt;e10 -->
<g id="edge24" class="edge">
<title>n9&#45;&gt;e10</title>
<path fill="none" stroke="#000000" d="M128.6694,-1074.6345C128.5112,-1061.6102 128.2813,-1042.6736 128.1057,-1028.212"/>
<polygon fill="#000000" stroke="#000000" points="131.6053,-1028.1542 127.9841,-1018.1974 124.6058,-1028.2392 131.6053,-1028.1542"/>
<text text-anchor="middle" x="132.8528" y="-1042.6894" font-family="Helvetica,sans-Serif" font-size="14.00" fill="#000000">0</text>
</g>
<!-- n10 -->
<g id="node11" class="node">
<title>n10</title>
<ellipse fill="none" stroke="#000000" cx="124.8528" cy="-931.0402" rx="30.3115" ry="14.7"/>
<text text-anchor="middle" x="124.8528" y="-927.3402" font-family="Helvetica,sans-Serif" font-size="14.00" fill="#000000">lhsOp</text>
</g>
<!-- e11 -->
<g id="node29" class="node">
<title>e11</title>
<text text-anchor="middle" x="111.8528" y="-850.9909" font-family="Helvetica,sans-Serif" font-size="14.00" fill="#000000">16</text>
</g>
<!-- n10&#45;&gt;e11 -->
<g id="edge26" class="edge">
<title>n10&#45;&gt;e11</title>
<path fill="none" stroke="#000000" d="M122.2844,-915.956C120.3157,-904.3934 117.5761,-888.3039 115.3985,-875.5147"/>
<polygon fill="#000000" stroke="#000000" points="118.7919,-874.5926 113.663,-865.322 111.8913,-875.7676 118.7919,-874.5926"/>
<text text-anchor="middle" x="123.8528" y="-886.9909" font-family="Helvetica,sans-Serif" font-size="14.00" fill="#000000">0</text>
</g>
<!-- n11 -->
<g id="node12" class="node">
<title>n11</title>
<ellipse fill="none" stroke="#000000" cx="84.8528" cy="-778.3417" rx="8.4706" ry="14.7"/>
<text text-anchor="middle" x="84.8528" y="-774.6417" font-family="Helvetica,sans-Serif" font-size="14.00" fill="#000000">*</text>
</g>
<!-- e12 -->
<g id="node30" class="node">
<title>e12</title>
<polygon fill="none" stroke="#000000" points="95.8528,-712.4924 73.8528,-712.4924 73.8528,-691.4924 95.8528,-691.4924 95.8528,-712.4924"/>
<text text-anchor="middle" x="84.8528" y="-698.2924" font-family="Helvetica,sans-Serif" font-size="14.00" fill="#000000">32</text>
</g>
<!-- n11&#45;&gt;e12 -->
<g id="edge28" class="edge">
<title>n11&#45;&gt;e12</title>
<path fill="none" stroke="#000000" d="M84.8528,-763.2575C84.8528,-751.695 84.8528,-735.6055 84.8528,-722.8162"/>
<polygon fill="#000000" stroke="#000000" points="88.3529,-722.6235 84.8528,-712.6235 81.3529,-722.6235 88.3529,-722.6235"/>
<text text-anchor="middle" x="88.8528" y="-734.2924" font-family="Helvetica,sans-Serif" font-size="14.00" fill="#000000">0</text>
</g>
<!-- n12 -->
<g id="node13" class="node">
<title>n12</title>
<ellipse fill="none" stroke="#000000" cx="84.8528" cy="-625.6432" rx="41.0244" ry="14.7"/>
<text text-anchor="middle" x="84.8528" y="-621.9432" font-family="Helvetica,sans-Serif" font-size="14.00" fill="#000000">bitSelect</text>
</g>
<!-- e13 -->
<g id="node31" class="node">
<title>e13</title>
<text text-anchor="middle" x="84.8528" y="-545.5939" font-family="Helvetica,sans-Serif" font-size="14.00" fill="#000000">16</text>
</g>
<!-- n12&#45;&gt;e13 -->
<g id="edge30" class="edge">
<title>n12&#45;&gt;e13</title>
<path fill="none" stroke="#000000" d="M84.8528,-610.559C84.8528,-598.9965 84.8528,-582.907 84.8528,-570.1177"/>
<polygon fill="#000000" stroke="#000000" points="88.3529,-569.925 84.8528,-559.925 81.3529,-569.9251 88.3529,-569.925"/>
<text text-anchor="middle" x="88.8528" y="-581.5939" font-family="Helvetica,sans-Serif" font-size="14.00" fill="#000000">0</text>
</g>
<!-- n13 -->
<g id="node14" class="node">
<title>n13</title>
<ellipse fill="none" stroke="#000000" cx="84.8528" cy="-472.9447" rx="84.7059" ry="14.7"/>
<text text-anchor="middle" x="84.8528" y="-469.2447" font-family="Helvetica,sans-Serif" font-size="14.00" fill="#000000">reciprocalSatShift2</text>
</g>
<!-- e14 -->
<g id="node32" class="node">
<title>e14</title>
<text text-anchor="middle" x="140.8528" y="-392.8955" font-family="Helvetica,sans-Serif" font-size="14.00" fill="#000000">16</text>
</g>
<!-- n13&#45;&gt;e14 -->
<g id="edge32" class="edge">
<title>n13&#45;&gt;e14</title>
<path fill="none" stroke="#000000" d="M95.9166,-457.8605C104.8257,-445.714 117.3991,-428.5717 126.9812,-415.5078"/>
<polygon fill="#000000" stroke="#000000" points="129.963,-417.3601 133.0552,-407.2265 124.3186,-413.22 129.963,-417.3601"/>
<text text-anchor="middle" x="123.8528" y="-428.8955" font-family="Helvetica,sans-Serif" font-size="14.00" fill="#000000">0</text>
</g>
<!-- n14 -->
<g id="node15" class="node">
<title>n14</title>
<ellipse fill="none" stroke="#000000" cx="177.8528" cy="-320.2462" rx="35.2113" ry="14.7"/>
<text text-anchor="middle" x="177.8528" y="-316.5462" font-family="Helvetica,sans-Serif" font-size="14.00" fill="#000000">renorm</text>
</g>
<!-- e15 -->
<g id="node33" class="node">
<title>e15</title>
<polygon fill="none" stroke="#000000" points="206.8528,-254.397 151.1861,-254.397 148.8528,-252.0636 148.8528,-233.397 204.5195,-233.397 206.8528,-235.7303 206.8528,-254.397"/>
<polyline fill="none" stroke="#000000" points="204.5195,-252.0636 148.8528,-252.0636 "/>
<polyline fill="none" stroke="#000000" points="204.5195,-252.0636 204.5195,-233.397 "/>
<polyline fill="none" stroke="#000000" points="204.5195,-252.0636 206.8528,-254.397 "/>
<text text-anchor="middle" x="177.8528" y="-240.197" font-family="Helvetica,sans-Serif" font-size="14.00" fill="#000000">16,C:1.5</text>
</g>
<!-- n14&#45;&gt;e15 -->
<g id="edge34" class="edge">
<title>n14&#45;&gt;e15</title>
<path fill="none" stroke="#000000" d="M177.8528,-305.1621C177.8528,-293.5995 177.8528,-277.51 177.8528,-264.7208"/>
<polygon fill="#000000" stroke="#000000" points="181.3529,-264.528 177.8528,-254.5281 174.3529,-264.5281 181.3529,-264.528"/>
<text text-anchor="middle" x="181.8528" y="-276.197" font-family="Helvetica,sans-Serif" font-size="14.00" fill="#000000">0</text>
</g>
<!-- n15 -->
<g id="node16" class="node">
<title>n15</title>
<ellipse fill="none" stroke="#000000" cx="177.8528" cy="-167.5477" rx="60.2083" ry="14.7"/>
<text text-anchor="middle" x="177.8528" y="-163.8477" font-family="Helvetica,sans-Serif" font-size="14.00" fill="#000000">reciprocalSat</text>
</g>
<!-- e16 -->
<g id="node34" class="node">
<title>e16</title>
<polygon fill="none" stroke="#000000" points="206.8528,-101.6985 151.1861,-101.6985 148.8528,-99.3652 148.8528,-80.6985 204.5195,-80.6985 206.8528,-83.0318 206.8528,-101.6985"/>
<polyline fill="none" stroke="#000000" points="204.5195,-99.3652 148.8528,-99.3652 "/>
<polyline fill="none" stroke="#000000" points="204.5195,-99.3652 204.5195,-80.6985 "/>
<polyline fill="none" stroke="#000000" points="204.5195,-99.3652 206.8528,-101.6985 "/>
<text text-anchor="middle" x="177.8528" y="-87.4985" font-family="Helvetica,sans-Serif" font-size="14.00" fill="#000000">16,C:1.5</text>
</g>
<!-- n15&#45;&gt;e16 -->
<g id="edge36" class="edge">
<title>n15&#45;&gt;e16</title>
<path fill="none" stroke="#000000" d="M177.8528,-152.4636C177.8528,-140.901 177.8528,-124.8115 177.8528,-112.0223"/>
<polygon fill="#000000" stroke="#000000" points="181.3529,-111.8295 177.8528,-101.8296 174.3529,-111.8296 181.3529,-111.8295"/>
<text text-anchor="middle" x="181.8528" y="-123.4985" font-family="Helvetica,sans-Serif" font-size="14.00" fill="#000000">0</text>
</g>
<!-- n16 -->
<g id="node17" class="node">
<title>n16</title>
<ellipse fill="none" stroke="#000000" cx="177.8528" cy="-14.8492" rx="20.5122" ry="14.7"/>
<text text-anchor="middle" x="177.8528" y="-11.1492" font-family="Helvetica,sans-Serif" font-size="14.00" fill="#000000">n16</text>
</g>
<!-- e0&#45;&gt;n1 -->
<g id="edge2" class="edge">
<title>e0&#45;&gt;n1</title>
<path fill="none" stroke="#000000" d="M169.8528,-1966.3612C169.8528,-1955.9506 169.8528,-1939.685 169.8528,-1925.9391"/>
<polygon fill="#000000" stroke="#000000" points="173.3529,-1925.6154 169.8528,-1915.6154 166.3529,-1925.6154 173.3529,-1925.6154"/>
<text text-anchor="middle" x="173.8528" y="-1937.2773" font-family="Helvetica,sans-Serif" font-size="14.00" fill="#000000">0</text>
</g>
<!-- e1&#45;&gt;n2 -->
<g id="edge4" class="edge">
<title>e1&#45;&gt;n2</title>
<path fill="none" stroke="#000000" d="M166.7938,-1813.6628C163.7267,-1803.0185 158.8958,-1786.2534 154.8806,-1772.3189"/>
<polygon fill="#000000" stroke="#000000" points="158.1439,-1771.0031 152.0119,-1762.3632 151.4176,-1772.9413 158.1439,-1771.0031"/>
<text text-anchor="middle" x="165.8528" y="-1784.5788" font-family="Helvetica,sans-Serif" font-size="14.00" fill="#000000">0</text>
</g>
<!-- e1&#45;&gt;n3 -->
<g id="edge5" class="edge">
<title>e1&#45;&gt;n3</title>
<path fill="none" stroke="#000000" d="M171.6201,-1813.7536C172.4469,-1808.3896 173.3568,-1801.7539 173.8528,-1795.7788 179.4686,-1728.1222 176.9638,-1710.9638 177.8528,-1643.0803 177.9401,-1636.4142 178.3558,-1634.728 177.8528,-1628.0803 177.6586,-1625.5134 177.3801,-1622.8432 177.0527,-1620.1838"/>
<polygon fill="#000000" stroke="#000000" points="180.5081,-1619.6224 175.6221,-1610.2215 173.5792,-1620.6175 180.5081,-1619.6224"/>
<text text-anchor="middle" x="181.8528" y="-1703.8803" font-family="Helvetica,sans-Serif" font-size="14.00" fill="#000000">0</text>
</g>
<!-- e2&#45;&gt;n3 -->
<g id="edge7" class="edge">
<title>e2&#45;&gt;n3</title>
<path fill="none" stroke="#000000" d="M157.3556,-1660.9643C159.8343,-1650.4506 163.7209,-1633.9654 166.9816,-1620.1346"/>
<polygon fill="#000000" stroke="#000000" points="170.4313,-1620.7548 169.3194,-1610.2184 163.618,-1619.1484 170.4313,-1620.7548"/>
<text text-anchor="middle" x="169.8528" y="-1631.8803" font-family="Helvetica,sans-Serif" font-size="14.00" fill="#000000">1</text>
<text text-anchor="middle" x="160.8194" y="-1614.0184" font-family="Helvetica,sans-Serif" font-size="14.00" fill="#000000">lzc</text>
</g>
<!-- e3&#45;&gt;n6 -->
<g id="edge9" class="edge">
<title>e3&#45;&gt;n6</title>
<path fill="none" stroke="#000000" d="M123.3198,-1508.1859C119.169,-1502.8935 114.1584,-1496.3704 109.8528,-1490.3818 102.6892,-1480.418 95.0914,-1469.164 88.7313,-1459.5302"/>
<polygon fill="#000000" stroke="#000000" points="91.4752,-1457.3317 83.0673,-1450.8852 85.62,-1461.1679 91.4752,-1457.3317"/>
<text text-anchor="middle" x="113.8528" y="-1476.1818" font-family="Helvetica,sans-Serif" font-size="14.00" fill="#000000">0</text>
</g>
<!-- e3&#45;&gt;n8 -->
<g id="edge10" class="edge">
<title>e3&#45;&gt;n8</title>
<path fill="none" stroke="#000000" d="M131.7277,-1508.2183C131.2858,-1470.5421 129.7899,-1343.0217 129.1487,-1288.3558"/>
<polygon fill="#000000" stroke="#000000" points="132.6461,-1288.1062 129.0289,-1278.148 125.6465,-1288.1884 132.6461,-1288.1062"/>
<text text-anchor="middle" x="134.8528" y="-1385.1341" font-family="Helvetica,sans-Serif" font-size="14.00" fill="#000000">0</text>
</g>
<!-- e4&#45;&gt;n4 -->
<g id="edge12" class="edge">
<title>e4&#45;&gt;n4</title>
<path fill="none" stroke="#000000" d="M189.5647,-1469.0799C190.4531,-1455.5977 192.0008,-1432.112 193.1931,-1414.0203"/>
<polygon fill="#000000" stroke="#000000" points="196.6981,-1414.0582 193.8633,-1403.8496 189.7132,-1413.5978 196.6981,-1414.0582"/>
<text text-anchor="middle" x="196.8528" y="-1432.8326" font-family="Helvetica,sans-Serif" font-size="14.00" fill="#000000">0</text>
</g>
<!-- e5&#45;&gt;n5 -->
<g id="edge14" class="edge">
<title>e5&#45;&gt;n5</title>
<path fill="none" stroke="#000000" d="M195.9715,-1295.6829C196.1195,-1282.2007 196.3775,-1258.715 196.5762,-1240.6234"/>
<polygon fill="#000000" stroke="#000000" points="200.0778,-1240.4905 196.6879,-1230.4527 193.0782,-1240.4136 200.0778,-1240.4905"/>
<text text-anchor="middle" x="200.8528" y="-1259.4356" font-family="Helvetica,sans-Serif" font-size="14.00" fill="#000000">0</text>
</g>
<!-- e6&#45;&gt;n14 -->
<g id="edge16" class="edge">
<title>e6&#45;&gt;n14</title>
<path fill="none" stroke="#000000" d="M197.8528,-1035.7082C197.8528,-1021.1615 197.8528,-994.3061 197.8528,-971.3894 197.8528,-971.3894 197.8528,-971.3894 197.8528,-396.5955 197.8528,-378.6711 192.6307,-359.1296 187.5233,-344.3039"/>
<polygon fill="#000000" stroke="#000000" points="190.7949,-343.0592 184.0713,-334.8711 184.2212,-345.4649 190.7949,-343.0592"/>
<text text-anchor="middle" x="201.8528" y="-698.2924" font-family="Helvetica,sans-Serif" font-size="14.00" fill="#000000">1</text>
</g>
<!-- e7&#45;&gt;n7 -->
<g id="edge18" class="edge">
<title>e7&#45;&gt;n7</title>
<path fill="none" stroke="#000000" d="M72.807,-1334.7191C71.6645,-1322.9588 69.7955,-1303.7205 68.2827,-1288.1483"/>
<polygon fill="#000000" stroke="#000000" points="71.7562,-1287.7049 67.3056,-1278.0902 64.789,-1288.3818 71.7562,-1287.7049"/>
<text text-anchor="middle" x="75.8528" y="-1302.7848" font-family="Helvetica,sans-Serif" font-size="14.00" fill="#000000">0</text>
</g>
<!-- e7&#45;&gt;n8 -->
<g id="edge19" class="edge">
<title>e7&#45;&gt;n8</title>
<path fill="none" stroke="#000000" d="M81.0431,-1334.7191C90.0005,-1321.3075 105.4533,-1298.1707 116.3627,-1281.8366"/>
<polygon fill="#000000" stroke="#000000" points="119.5339,-1283.3901 122.1774,-1273.1304 113.7128,-1279.5023 119.5339,-1283.3901"/>
<text text-anchor="middle" x="110.8528" y="-1302.7848" font-family="Helvetica,sans-Serif" font-size="14.00" fill="#000000">1</text>
</g>
<!-- e8&#45;&gt;n11 -->
<g id="edge21" class="edge">
<title>e8&#45;&gt;n11</title>
<path fill="none" stroke="#000000" d="M60.6504,-1122.4106C60.3582,-1106.048 59.8528,-1073.7855 59.8528,-1046.3894 59.8528,-1046.3894 59.8528,-1046.3894 59.8528,-854.6909 59.8528,-834.8592 67.5651,-813.5043 74.4226,-798.4361"/>
<polygon fill="#000000" stroke="#000000" points="77.7318,-799.6317 78.9282,-789.1046 71.4282,-796.588 77.7318,-799.6317"/>
<text text-anchor="middle" x="63.8528" y="-967.6894" font-family="Helvetica,sans-Serif" font-size="14.00" fill="#000000">1</text>
</g>
<!-- e9&#45;&gt;n9 -->
<g id="edge23" class="edge">
<title>e9&#45;&gt;n9</title>
<path fill="none" stroke="#000000" d="M128.8528,-1161.3222C128.8528,-1149.5618 128.8528,-1130.3236 128.8528,-1114.7513"/>
<polygon fill="#000000" stroke="#000000" points="132.3529,-1114.6932 128.8528,-1104.6932 125.3529,-1114.6933 132.3529,-1114.6932"/>
<text text-anchor="middle" x="132.8528" y="-1129.3879" font-family="Helvetica,sans-Serif" font-size="14.00" fill="#000000">0</text>
</g>
<!-- e10&#45;&gt;n10 -->
<g id="edge25" class="edge">
<title>e10&#45;&gt;n10</title>
<path fill="none" stroke="#000000" d="M127.4357,-996.7734C127.0266,-986.3628 126.3875,-970.0971 125.8474,-956.3512"/>
<polygon fill="#000000" stroke="#000000" points="129.3317,-955.8824 125.4417,-946.0275 122.3371,-956.1573 129.3317,-955.8824"/>
<text text-anchor="middle" x="130.8528" y="-967.6894" font-family="Helvetica,sans-Serif" font-size="14.00" fill="#000000">0</text>
</g>
<!-- e11&#45;&gt;n11 -->
<g id="edge27" class="edge">
<title>e11&#45;&gt;n11</title>
<path fill="none" stroke="#000000" d="M108.0986,-844.0749C104.1575,-832.9306 97.8438,-815.0769 92.7903,-800.787"/>
<polygon fill="#000000" stroke="#000000" points="96.0192,-799.4194 89.3853,-791.1585 89.4197,-801.7533 96.0192,-799.4194"/>
<text text-anchor="middle" x="105.8528" y="-814.9909" font-family="Helvetica,sans-Serif" font-size="14.00" fill="#000000">0</text>
</g>
<!-- e12&#45;&gt;n12 -->
<g id="edge29" class="edge">
<title>e12&#45;&gt;n12</title>
<path fill="none" stroke="#000000" d="M84.8528,-691.3764C84.8528,-680.9658 84.8528,-664.7002 84.8528,-650.9543"/>
<polygon fill="#000000" stroke="#000000" points="88.3529,-650.6305 84.8528,-640.6306 81.3529,-650.6306 88.3529,-650.6305"/>
<text text-anchor="middle" x="88.8528" y="-662.2924" font-family="Helvetica,sans-Serif" font-size="14.00" fill="#000000">0</text>
</g>
<!-- e13&#45;&gt;n13 -->
<g id="edge31" class="edge">
<title>e13&#45;&gt;n13</title>
<path fill="none" stroke="#000000" d="M84.8528,-538.6779C84.8528,-528.2673 84.8528,-512.0017 84.8528,-498.2558"/>
<polygon fill="#000000" stroke="#000000" points="88.3529,-497.932 84.8528,-487.9321 81.3529,-497.9321 88.3529,-497.932"/>
<text text-anchor="middle" x="88.8528" y="-509.5939" font-family="Helvetica,sans-Serif" font-size="14.00" fill="#000000">0</text>
</g>
<!-- e14&#45;&gt;n14 -->
<g id="edge33" class="edge">
<title>e14&#45;&gt;n14</title>
<path fill="none" stroke="#000000" d="M145.9975,-385.9794C151.2248,-375.193 159.498,-358.1212 166.3031,-344.0789"/>
<polygon fill="#000000" stroke="#000000" points="169.5129,-345.4812 170.7243,-334.9558 163.2136,-342.4284 169.5129,-345.4812"/>
<text text-anchor="middle" x="165.8528" y="-356.8955" font-family="Helvetica,sans-Serif" font-size="14.00" fill="#000000">0</text>
</g>
<!-- e15&#45;&gt;n15 -->
<g id="edge35" class="edge">
<title>e15&#45;&gt;n15</title>
<path fill="none" stroke="#000000" d="M177.8528,-233.2809C177.8528,-222.8703 177.8528,-206.6047 177.8528,-192.8588"/>
<polygon fill="#000000" stroke="#000000" points="181.3529,-192.5351 177.8528,-182.5351 174.3529,-192.5351 181.3529,-192.5351"/>
<text text-anchor="middle" x="181.8528" y="-204.197" font-family="Helvetica,sans-Serif" font-size="14.00" fill="#000000">0</text>
</g>
<!-- e16&#45;&gt;n16 -->
<g id="edge37" class="edge">
<title>e16&#45;&gt;n16</title>
<path fill="none" stroke="#000000" d="M177.8528,-80.5824C177.8528,-70.1719 177.8528,-53.9062 177.8528,-40.1603"/>
<polygon fill="#000000" stroke="#000000" points="181.3529,-39.8366 177.8528,-29.8366 174.3529,-39.8366 181.3529,-39.8366"/>
<text text-anchor="middle" x="181.8528" y="-51.4985" font-family="Helvetica,sans-Serif" font-size="14.00" fill="#000000">0</text>
</g>
</g>
</svg>
